<svg width="376" height="270" viewBox="0 0 376 270" fill="none" xmlns="http://www.w3.org/2000/svg">
<path d="M355.865 253.527C355.865 253.603 279.809 253.667 186.01 253.667C92.211 253.667 16.135 253.603 16.135 253.527C16.135 253.452 92.1755 253.387 186.01 253.387C279.845 253.387 355.865 253.446 355.865 253.527Z" fill="#263238"/>
<path d="M334.96 72.5719H142.062C141.271 72.5719 140.488 72.7377 139.757 73.0598C139.027 73.382 138.363 73.8541 137.804 74.4493C137.245 75.0445 136.802 75.751 136.499 76.5286C136.197 77.3061 136.042 78.1393 136.043 78.9807V223.925C136.043 225.623 136.677 227.252 137.806 228.453C138.935 229.654 140.466 230.329 142.062 230.329H216.096C216.096 230.329 220.808 245.82 206.206 253.84H275.432C275.432 253.84 258.96 247.825 263.186 230.329H334.96C336.556 230.329 338.087 229.654 339.216 228.453C340.345 227.252 340.979 225.623 340.979 223.925V78.9807C340.98 78.1393 340.825 77.3061 340.523 76.5286C340.22 75.751 339.777 75.0445 339.218 74.4493C338.659 73.8541 337.995 73.382 337.265 73.0598C336.534 72.7377 335.751 72.5719 334.96 72.5719Z" fill="#263238"/>
<path d="M241.085 215.064C243.709 219.052 239.605 223.424 235.851 220.632C235.726 220.538 235.618 220.421 235.532 220.287C232.912 216.298 237.016 211.938 240.766 214.724C240.889 214.818 240.997 214.933 241.085 215.064Z" fill="#455A64"/>
<path d="M144.276 75.2291H332.756C334.06 75.2291 335.31 75.78 336.231 76.7605C337.153 77.741 337.671 79.0708 337.671 80.4575V203.815H139.387V80.4575C139.387 79.0755 139.901 77.7497 140.817 76.77C141.733 75.7902 142.977 75.2362 144.276 75.2291Z" fill="white"/>
<path d="M162.668 104.255H156.162V181.527H162.668V104.255Z" fill="#1565C0"/>
<path d="M175.223 130.499H168.718V181.527H175.223V130.499Z" fill="#1565C0"/>
<path d="M187.779 113.86H181.273V181.92H187.779V113.86Z" fill="#1565C0"/>
<path d="M200.339 107.241H193.833V181.527H200.339V107.241Z" fill="#1565C0"/>
<path d="M212.894 132.073H206.388V181.527H212.894V132.073Z" fill="#1565C0"/>
<path d="M225.449 141.77H218.944V181.527H225.449V141.77Z" fill="#1565C0"/>
<path d="M238.004 112.189H231.499V181.527H238.004V112.189Z" fill="#1565C0"/>
<path d="M250.56 124.688H244.054V181.527H250.56V124.688Z" fill="#1565C0"/>
<path d="M263.12 114.701H256.614V181.527H263.12V114.701Z" fill="#1565C0"/>
<path d="M275.675 135.997H269.169V181.527H275.675V135.997Z" fill="#1565C0"/>
<path d="M300.719 112.189H294.214V181.527H300.719V112.189Z" fill="#1565C0"/>
<path d="M327.385 156.802H320.88V180.53H327.385V156.802Z" fill="#1565C0"/>
<path d="M314.384 135.997H307.879V181.527H314.384V135.997Z" fill="#1565C0"/>
<path d="M288.23 127.335H281.725V181.527H288.23V127.335Z" fill="#1565C0"/>
<path d="M329.209 114.108C329.018 114.09 328.829 114.057 328.642 114.011L326.985 113.65C326.091 113.446 325.188 113.293 324.279 113.192C323.045 113.008 321.802 112.898 320.555 112.863C317.138 112.741 313.72 113.052 310.371 113.79C305.946 114.8 301.689 116.515 297.745 118.878C292.966 121.742 288.647 125.4 284.952 129.712C280.97 134.358 277.61 140.099 274.175 146.173C270.74 152.248 267.173 158.77 262.061 164.397C259.504 167.305 256.483 169.708 253.138 171.496C251.403 172.393 249.546 172.996 247.636 173.285C245.695 173.56 243.724 173.489 241.804 173.075C237.943 172.17 234.523 170.014 231.646 167.41C228.823 164.823 226.297 161.89 224.122 158.673C219.754 152.42 216.653 145.683 213.335 139.544C210.016 133.404 206.687 127.626 202.558 123.125C200.602 120.934 198.358 119.057 195.895 117.552C194.738 116.842 193.534 116.22 192.293 115.692C191.093 115.221 189.866 114.834 188.619 114.534C184.209 113.462 179.616 113.6 175.269 114.932C171.986 115.932 168.886 117.517 166.103 119.622C164.363 120.983 162.751 122.521 161.29 124.214L160.16 125.546C160.036 125.704 159.901 125.852 159.755 125.988C159.854 125.812 159.969 125.648 160.099 125.497L161.168 124.096C162.595 122.348 164.19 120.764 165.926 119.369C168.713 117.197 171.833 115.555 175.147 114.517C179.554 113.109 184.227 112.924 188.721 113.978C193.722 115.056 198.819 118.096 202.978 122.656C207.138 127.216 210.604 133 213.907 139.166C217.211 145.333 220.362 152.032 224.684 158.204C226.83 161.378 229.32 164.272 232.102 166.828C234.919 169.378 238.242 171.458 241.941 172.326C243.776 172.719 245.659 172.787 247.514 172.525C249.352 172.245 251.138 171.665 252.809 170.806C256.085 169.056 259.044 166.704 261.549 163.858C266.59 158.344 270.117 151.833 273.603 145.801C277.089 139.77 280.453 133.943 284.506 129.275C288.263 124.938 292.647 121.266 297.492 118.398C301.492 116.038 305.808 114.342 310.29 113.369C313.672 112.654 317.122 112.383 320.566 112.561C321.82 112.616 323.07 112.751 324.31 112.965C325.221 113.087 326.125 113.267 327.015 113.504L328.657 113.941C328.845 113.981 329.03 114.037 329.209 114.108Z" fill="#263238"/>
<path d="M149.013 186.911C148.866 186.911 148.745 164.877 148.745 137.7C148.745 110.523 148.866 88.4888 149.013 88.4888C149.16 88.4888 149.282 110.518 149.282 137.7C149.282 164.882 149.15 186.911 149.013 186.911Z" fill="#263238"/>
<path d="M327.36 186.911C327.36 187.068 288.347 187.192 240.213 187.192C192.08 187.192 153.067 187.068 153.067 186.911C153.067 186.755 192.08 186.626 240.213 186.626C288.347 186.626 327.36 186.755 327.36 186.911Z" fill="#263238"/>
<path d="M165.44 192.991C165.44 193.148 163.281 193.277 160.616 193.277C157.951 193.277 155.788 193.148 155.788 192.991C155.788 192.835 157.946 192.706 160.616 192.706C163.286 192.706 165.44 192.835 165.44 192.991Z" fill="#263238"/>
<path d="M181.44 193.299C181.44 193.46 178.856 193.584 175.674 193.584C172.492 193.584 169.903 193.46 169.903 193.299C169.903 193.137 172.487 193.018 175.674 193.018C178.861 193.018 181.44 193.142 181.44 193.299Z" fill="#263238"/>
<path d="M195.12 193.299C195.12 193.46 192.536 193.584 189.354 193.584C186.172 193.584 183.583 193.46 183.583 193.299C183.583 193.137 186.167 193.018 189.354 193.018C192.541 193.018 195.12 193.142 195.12 193.299Z" fill="#263238"/>
<path d="M208.759 193.299C208.759 193.46 206.175 193.584 202.994 193.584C199.812 193.584 197.223 193.46 197.223 193.299C197.223 193.137 199.807 193.018 202.994 193.018C206.181 193.018 208.759 193.142 208.759 193.299Z" fill="#263238"/>
<path d="M222.414 193.299C222.414 193.46 219.835 193.584 216.648 193.584C213.461 193.584 210.877 193.46 210.877 193.299C210.877 193.137 213.461 193.018 216.648 193.018C219.835 193.018 222.414 193.142 222.414 193.299Z" fill="#263238"/>
<path d="M236.074 193.299C236.074 193.46 233.49 193.584 230.303 193.584C227.116 193.584 224.537 193.46 224.537 193.299C224.537 193.137 227.116 193.018 230.303 193.018C233.49 193.018 236.074 193.142 236.074 193.299Z" fill="#263238"/>
<path d="M249.729 193.299C249.729 193.46 247.145 193.584 243.958 193.584C240.771 193.584 238.192 193.46 238.192 193.299C238.192 193.137 240.771 193.018 243.958 193.018C247.145 193.018 249.729 193.142 249.729 193.299Z" fill="#263238"/>
<path d="M263.383 193.299C263.383 193.46 260.799 193.584 257.612 193.584C254.425 193.584 251.846 193.46 251.846 193.299C251.846 193.137 254.43 193.018 257.612 193.018C260.794 193.018 263.383 193.142 263.383 193.299Z" fill="#263238"/>
<path d="M277.038 193.299C277.038 193.46 274.454 193.584 271.272 193.584C268.09 193.584 265.501 193.46 265.501 193.299C265.501 193.137 268.085 193.018 271.272 193.018C274.459 193.018 277.038 193.142 277.038 193.299Z" fill="#263238"/>
<path d="M290.693 193.299C290.693 193.46 288.109 193.584 284.927 193.584C281.745 193.584 279.156 193.46 279.156 193.299C279.156 193.137 281.74 193.018 284.927 193.018C288.114 193.018 290.693 193.142 290.693 193.299Z" fill="#263238"/>
<path d="M303.395 193.304C303.395 193.466 300.811 193.59 297.624 193.59C294.437 193.59 291.858 193.466 291.858 193.304C291.858 193.142 294.442 193.024 297.624 193.024C300.806 193.024 303.395 193.148 303.395 193.304Z" fill="#263238"/>
<path d="M316.097 193.309C316.097 193.466 313.513 193.595 310.326 193.595C307.139 193.595 304.56 193.466 304.56 193.309C304.56 193.153 307.139 193.029 310.326 193.029C313.513 193.029 316.097 193.153 316.097 193.309Z" fill="#263238"/>
<path d="M328.794 193.315C328.794 193.471 326.21 193.601 323.028 193.601C319.846 193.601 317.257 193.471 317.257 193.315C317.257 193.159 319.841 193.029 323.028 193.029C326.215 193.029 328.794 193.159 328.794 193.315Z" fill="#263238"/>
<path d="M215.387 140.233C215.387 140.115 216.187 140.411 216.441 141.57C216.603 142.239 216.531 142.948 216.238 143.564C216.041 143.971 215.7 144.277 215.29 144.416C214.846 144.549 214.371 144.489 213.968 144.249C213.603 144.032 213.304 143.71 213.104 143.32C212.904 142.93 212.812 142.488 212.838 142.044C212.862 141.696 212.955 141.356 213.111 141.049C213.268 140.741 213.484 140.472 213.745 140.26C213.916 140.111 214.117 140.005 214.331 139.949C214.546 139.893 214.77 139.889 214.986 139.937C215.29 140.034 215.392 140.19 215.371 140.223C215.351 140.255 214.713 140.007 214.074 140.681C213.724 141.049 213.52 141.547 213.507 142.071C213.505 142.375 213.578 142.673 213.719 142.936C213.861 143.2 214.066 143.418 214.313 143.57C214.423 143.643 214.546 143.692 214.674 143.713C214.803 143.734 214.934 143.727 215.06 143.693C215.186 143.659 215.304 143.598 215.407 143.513C215.51 143.429 215.596 143.324 215.66 143.203C215.902 142.735 215.998 142.197 215.934 141.667C215.848 140.681 215.331 140.325 215.387 140.233Z" fill="#263238"/>
<path d="M300.983 114.808C300.983 114.765 301.191 114.695 301.551 114.808C302.047 115.006 302.46 115.389 302.711 115.887C302.912 116.249 303.041 116.651 303.09 117.068C303.138 117.485 303.106 117.909 302.995 118.312C302.863 118.839 302.576 119.307 302.175 119.648C301.775 119.988 301.282 120.183 300.77 120.204C300.495 120.191 300.227 120.114 299.982 119.979C299.738 119.844 299.525 119.654 299.357 119.422C299.061 119.029 298.857 118.567 298.759 118.075C298.662 117.668 298.644 117.244 298.707 116.83C298.769 116.416 298.911 116.019 299.124 115.666C299.924 114.464 300.912 114.523 300.877 114.588C300.922 114.701 300.096 114.868 299.564 115.919C299.283 116.527 299.227 117.225 299.407 117.875C299.58 118.587 300.096 119.401 300.796 119.406C301.153 119.375 301.493 119.231 301.772 118.991C302.052 118.752 302.257 118.429 302.361 118.064C302.559 117.425 302.521 116.729 302.255 116.118C301.986 115.538 301.537 115.075 300.983 114.808Z" fill="#263238"/>
<path d="M227.187 36.011H96.6646V144.077H227.187V36.011Z" fill="white"/>
<path d="M227.187 144.077C227.187 142.999 227.141 101.225 227.065 36.011L227.187 36.1404H96.6798L96.8267 35.9841C96.8267 74.9381 96.8267 111.779 96.8267 144.05L96.695 143.909L227.217 144.05L96.695 144.19H96.5632V144.05C96.5632 111.779 96.5632 74.9381 96.5632 35.9841V35.8278H96.7254H227.233H227.354V35.9571C227.238 101.225 227.192 142.999 227.187 144.077Z" fill="#263238"/>
<path d="M124.161 50.2085H103.033V51.459H124.161V50.2085Z" fill="#263238"/>
<path d="M113.476 53.1353H103.033V54.3858H113.476V53.1353Z" fill="#263238"/>
<path d="M118.902 128.548H115.077V129.723H118.902V128.548Z" fill="#263238"/>
<path d="M128.63 134.822H123.736V135.997H128.63V134.822Z" fill="#263238"/>
<path d="M145.669 134.822H140.775V135.997H145.669V134.822Z" fill="#263238"/>
<path d="M162.709 134.822H157.814V135.997H162.709V134.822Z" fill="#263238"/>
<path d="M179.748 134.822H174.853V135.997H179.748V134.822Z" fill="#263238"/>
<path d="M196.787 134.822H191.893V135.997H196.787V134.822Z" fill="#263238"/>
<path d="M213.826 134.822H208.932V135.997H213.826V134.822Z" fill="#263238"/>
<path d="M118.902 112.879H115.077V114.054H118.902V112.879Z" fill="#263238"/>
<path d="M118.902 83.3844H115.077V84.5594H118.902V83.3844Z" fill="#263238"/>
<path d="M118.902 68.5616H115.077V69.7367H118.902V68.5616Z" fill="#263238"/>
<path d="M119.1 98.1316H115.274V99.3066H119.1V98.1316Z" fill="#263238"/>
<path d="M213.689 129.723C213.689 129.723 213.553 129.723 213.279 129.723H212.073L207.442 129.75L190.413 129.798L134.219 129.836H120.772V129.696C120.772 109.704 120.807 92.1108 120.817 79.5088C120.817 73.2132 120.848 68.1897 120.858 64.6862C120.858 62.9559 120.858 61.6138 120.858 60.6975C120.858 60.2447 120.858 59.9052 120.858 59.6626C120.858 59.4201 120.858 59.3123 120.858 59.3123C120.858 59.3123 120.858 59.4308 120.858 59.6626C120.858 59.8944 120.858 60.2447 120.858 60.6975C120.858 61.6138 120.858 62.9559 120.858 64.6862C120.858 68.1681 120.858 73.2132 120.898 79.5088C120.898 92.1108 120.924 109.693 120.944 129.696L120.812 129.556H134.219L190.413 129.599L207.442 129.642L212.073 129.669H213.279L213.689 129.723Z" fill="#263238"/>
<path d="M214.768 98.7191C214.768 98.7946 194.583 98.8593 169.675 98.8593C144.767 98.8593 124.582 98.7946 124.582 98.7191C124.582 98.6437 144.762 98.579 169.675 98.579C194.588 98.579 214.768 98.6383 214.768 98.7191Z" fill="#263238"/>
<path d="M214.768 83.9719C214.768 84.0474 194.583 84.1121 169.675 84.1121C144.767 84.1121 124.582 84.0474 124.582 83.9719C124.582 83.8965 144.762 83.8318 169.675 83.8318C194.588 83.8318 214.768 83.8965 214.768 83.9719Z" fill="#263238"/>
<path d="M214.768 69.1492C214.768 69.23 194.583 69.2893 169.675 69.2893C144.767 69.2893 124.582 69.23 124.582 69.1492C124.582 69.0683 144.762 69.009 169.675 69.009C194.588 69.009 214.768 69.0737 214.768 69.1492Z" fill="#263238"/>
<path d="M214.768 113.466C214.768 113.542 194.583 113.606 169.675 113.606C144.767 113.606 124.582 113.542 124.582 113.466C124.582 113.391 144.762 113.326 169.675 113.326C194.588 113.326 214.768 113.391 214.768 113.466Z" fill="#263238"/>
<path d="M125.534 126.548V113.466L133.2 100.794L138.404 105.042L149.079 87.4L155.377 92.1163L164.137 75.8383L171.231 82.0099L181.947 60.4281L193.448 84.5595L202.72 72.4857L213.669 69.1492V126.548H125.534Z" fill="#455A64"/>
<path d="M214.769 64.503C214.704 64.5076 214.64 64.5076 214.576 64.503H214.003H211.784L203.379 64.5407L203.434 64.5083L194.426 77.078L194.39 77.1211H194.34H171.793L171.905 77.0564L162.425 93.8411C159.197 99.5546 156.071 105.079 153.117 110.297L153.021 110.475L152.91 110.308L140.689 92.4505H140.866L129.76 110.928L126.664 116.037C126.31 116.62 126.036 117.067 125.843 117.374C125.651 117.681 125.555 117.827 125.555 117.827C125.555 117.827 125.641 117.665 125.818 117.358L126.609 116.005C127.313 114.814 128.341 113.073 129.649 110.858L140.694 92.3319L140.78 92.1917L140.876 92.3265L153.122 110.162H152.91L162.187 93.7117L171.677 76.9271L171.712 76.8624H171.813L194.36 76.8893L194.279 76.9325L203.343 64.4598V64.4275H203.379L211.784 64.4652H214.003H214.576L214.769 64.503Z" fill="#263238"/>
<path d="M144.453 96.5847C144.46 96.7684 144.416 96.9502 144.325 97.1066C144.234 97.2631 144.101 97.3871 143.944 97.4626C143.786 97.5382 143.611 97.5619 143.441 97.5308C143.27 97.4996 143.113 97.4149 142.988 97.2876C142.863 97.1604 142.777 96.9963 142.741 96.8166C142.704 96.6368 142.719 96.4496 142.784 96.279C142.848 96.1083 142.959 95.9621 143.102 95.8591C143.245 95.756 143.414 95.7009 143.587 95.7007C143.812 95.6964 144.029 95.7869 144.191 95.9525C144.354 96.1182 144.448 96.3455 144.453 96.5847Z" fill="#263238"/>
<path d="M170.476 80.851C170.483 81.035 170.438 81.217 170.347 81.3735C170.256 81.5301 170.123 81.6541 169.965 81.7295C169.807 81.805 169.632 81.8284 169.461 81.7968C169.291 81.7651 169.133 81.6799 169.009 81.5521C168.884 81.4243 168.798 81.2597 168.762 81.0796C168.727 80.8995 168.742 80.7121 168.807 80.5416C168.873 80.371 168.984 80.2252 169.128 80.1228C169.272 80.0204 169.441 79.9661 169.614 79.9671C169.726 79.9649 169.836 79.9861 169.939 80.0294C170.043 80.0726 170.137 80.1371 170.217 80.2192C170.297 80.3013 170.361 80.3994 170.406 80.5078C170.45 80.6162 170.474 80.7328 170.476 80.851Z" fill="#263238"/>
<path d="M189.831 77.8811C190.309 77.8811 190.697 77.4853 190.697 76.9971C190.697 76.5089 190.309 76.1132 189.831 76.1132C189.352 76.1132 188.964 76.5089 188.964 76.9971C188.964 77.4853 189.352 77.8811 189.831 77.8811Z" fill="#263238"/>
<path d="M102.121 40.4578C102.121 40.671 102.062 40.8794 101.951 41.0567C101.839 41.234 101.681 41.3721 101.496 41.4537C101.311 41.5353 101.107 41.5567 100.91 41.5151C100.714 41.4735 100.533 41.3708 100.392 41.22C100.25 41.0693 100.153 40.8772 100.114 40.6681C100.075 40.459 100.095 40.2422 100.172 40.0452C100.249 39.8483 100.378 39.6799 100.545 39.5614C100.712 39.443 100.908 39.3798 101.108 39.3798C101.377 39.3798 101.635 39.4933 101.825 39.6955C102.015 39.8977 102.121 40.1719 102.121 40.4578Z" fill="#263238"/>
<path d="M105.04 40.4578C105.04 40.671 104.98 40.8794 104.869 41.0567C104.758 41.234 104.599 41.3721 104.414 41.4537C104.229 41.5353 104.025 41.5567 103.829 41.5151C103.632 41.4735 103.452 41.3708 103.31 41.22C103.168 41.0693 103.072 40.8772 103.033 40.6681C102.994 40.459 103.014 40.2422 103.09 40.0452C103.167 39.8483 103.297 39.6799 103.464 39.5614C103.63 39.443 103.826 39.3798 104.027 39.3798C104.295 39.3798 104.553 39.4933 104.743 39.6955C104.933 39.8977 105.04 40.1719 105.04 40.4578Z" fill="#263238"/>
<path d="M107.973 40.4578C107.973 40.671 107.914 40.8794 107.803 41.0567C107.691 41.234 107.533 41.3721 107.348 41.4537C107.163 41.5353 106.959 41.5567 106.762 41.5151C106.566 41.4735 106.385 41.3708 106.244 41.22C106.102 41.0693 106.005 40.8772 105.966 40.6681C105.927 40.459 105.947 40.2422 106.024 40.0452C106.101 39.8483 106.23 39.6799 106.397 39.5614C106.564 39.443 106.76 39.3798 106.96 39.3798C107.229 39.3798 107.487 39.4933 107.677 39.6955C107.867 39.8977 107.973 40.1719 107.973 40.4578Z" fill="#263238"/>
<path d="M227.081 44.6675C227.081 44.7429 197.917 44.8076 161.949 44.8076C125.98 44.8076 96.8267 44.7376 96.8267 44.6675C96.8267 44.5974 125.985 44.5273 161.964 44.5273C197.942 44.5273 227.081 44.5866 227.081 44.6675Z" fill="#263238"/>
<path d="M123.817 249.221L122.945 253.123C122.945 253.123 116.941 261.418 115.092 261.009C113.876 260.745 115.371 258.583 117.625 252.282L118.132 249.684L123.817 249.221Z" fill="#455A64"/>
<path d="M114.849 259.801C114.921 259.943 115.032 260.058 115.168 260.13C115.356 260.217 115.563 260.246 115.766 260.216C115.969 260.186 116.16 260.096 116.318 259.958C117.368 259.019 118.365 258.015 119.302 256.95C120.412 255.71 121.329 254.514 122.003 253.635L122.768 252.584C122.844 252.482 122.915 252.39 122.976 252.298C123 252.263 123.027 252.231 123.057 252.201C123.033 252.237 123.006 252.269 122.976 252.298L122.783 252.6C122.616 252.859 122.363 253.226 122.043 253.678C121.206 254.843 120.309 255.958 119.358 257.02C118.412 258.095 117.396 259.099 116.318 260.022C116.118 260.172 115.883 260.264 115.639 260.287C115.454 260.298 115.271 260.255 115.107 260.163C115.003 260.106 114.915 260.02 114.854 259.915C114.847 259.877 114.845 259.839 114.849 259.801Z" fill="#263238"/>
<path d="M115.695 257.106C115.856 257.038 116.031 257.018 116.201 257.047C116.604 257.089 116.991 257.231 117.331 257.462C117.685 257.678 117.971 258.001 118.152 258.389C118.234 258.546 118.279 258.722 118.284 258.901C118.284 258.901 118.228 258.707 118.086 258.427C117.893 258.068 117.613 257.771 117.276 257.565C116.947 257.34 116.577 257.191 116.191 257.128C116.026 257.112 115.861 257.104 115.695 257.106Z" fill="#263238"/>
<path d="M121.38 255.177C121.344 255.119 121.318 255.055 121.304 254.988C121.254 254.811 121.215 254.631 121.187 254.449C121.102 253.84 121.2 253.218 121.466 252.67C121.729 252.121 122.157 251.681 122.682 251.42C122.842 251.339 123.013 251.285 123.189 251.258C123.251 251.247 123.314 251.247 123.376 251.258C123.152 251.321 122.933 251.404 122.722 251.506C122.227 251.779 121.824 252.211 121.572 252.74C121.318 253.269 121.214 253.864 121.273 254.455C121.314 254.896 121.395 255.171 121.38 255.177Z" fill="#263238"/>
<path d="M123.437 249.884C123.437 249.884 123.325 250.423 123.214 251.129C123.167 251.553 123.061 251.967 122.9 252.358C122.9 252.358 122.996 251.819 123.107 251.107C123.156 250.684 123.267 250.271 123.437 249.884Z" fill="#263238"/>
<path d="M117.544 252.832C117.796 252.758 118.062 252.758 118.314 252.832C118.573 252.875 118.814 252.996 119.008 253.182C119.008 253.215 118.694 253.042 118.289 252.945C117.884 252.848 117.549 252.87 117.544 252.832Z" fill="#263238"/>
<path d="M117.423 253.5C117.632 253.421 117.861 253.421 118.071 253.5C118.292 253.535 118.494 253.653 118.639 253.835C118.639 253.862 118.38 253.694 118.046 253.614C117.711 253.533 117.428 253.538 117.423 253.5Z" fill="#263238"/>
<path d="M116.941 254.341C117.041 254.276 117.153 254.234 117.269 254.218C117.385 254.203 117.503 254.213 117.615 254.25C117.731 254.268 117.842 254.312 117.94 254.38C118.038 254.448 118.12 254.538 118.182 254.643C117.997 254.524 117.798 254.43 117.59 254.363C117.375 254.327 117.157 254.32 116.941 254.341Z" fill="#263238"/>
<path d="M117.96 252.552C117.96 252.552 118.233 252.476 118.664 252.298C118.913 252.193 119.155 252.068 119.389 251.927C119.515 251.846 119.652 251.754 119.784 251.657C119.915 251.56 120.042 251.42 120.037 251.269C120.032 251.118 119.855 251.032 119.718 251.07C119.575 251.122 119.448 251.213 119.348 251.334C119.125 251.555 118.938 251.765 118.786 251.948C118.477 252.315 118.309 252.557 118.279 252.546C118.305 252.481 118.339 252.419 118.38 252.363C118.451 252.25 118.563 252.088 118.71 251.894C118.883 251.672 119.068 251.46 119.262 251.258C119.373 251.121 119.516 251.019 119.677 250.962C119.726 250.946 119.777 250.941 119.827 250.948C119.877 250.955 119.926 250.973 119.968 251.002C120.011 251.03 120.048 251.069 120.075 251.114C120.103 251.159 120.121 251.21 120.128 251.264C120.118 251.363 120.087 251.459 120.035 251.543C119.984 251.628 119.916 251.698 119.834 251.749C119.701 251.847 119.562 251.937 119.419 252.018C119.181 252.16 118.932 252.279 118.674 252.374C118.5 252.439 118.323 252.491 118.142 252.53C118.031 252.557 117.96 252.563 117.96 252.552Z" fill="#263238"/>
<path d="M118.274 252.471C118.225 252.236 118.188 251.999 118.162 251.759C118.124 251.505 118.056 251.257 117.96 251.021C117.902 250.885 117.827 250.758 117.737 250.644C117.646 250.536 117.504 250.439 117.392 250.509C117.281 250.579 117.266 250.757 117.281 250.902C117.303 251.049 117.343 251.192 117.397 251.328C117.497 251.561 117.628 251.778 117.787 251.97C118.066 252.298 118.294 252.455 118.294 252.471C118.294 252.487 118.233 252.471 118.137 252.374C117.999 252.272 117.87 252.156 117.752 252.029C117.577 251.836 117.434 251.614 117.326 251.371C117.265 251.225 117.221 251.071 117.195 250.913C117.174 250.821 117.178 250.725 117.208 250.636C117.238 250.547 117.291 250.469 117.362 250.412C117.445 250.377 117.538 250.374 117.623 250.402C117.709 250.431 117.783 250.489 117.833 250.568C117.931 250.692 118.011 250.83 118.071 250.978C118.167 251.224 118.23 251.484 118.259 251.749C118.284 251.97 118.294 252.153 118.299 252.288C118.299 252.35 118.29 252.411 118.274 252.471Z" fill="#263238"/>
<path d="M152.56 251.032L152.585 245.825L143.44 245.706L143.313 253.333L143.881 253.382C146.414 253.565 156.745 254.115 158.442 253.592C160.337 252.999 152.56 251.032 152.56 251.032Z" fill="#455A64"/>
<path d="M143.187 253.102H143.344L143.8 253.139L145.461 253.236C146.87 253.312 148.816 253.382 150.964 253.414C153.112 253.447 155.058 253.414 156.466 253.414L158.133 253.366H156.466C155.063 253.366 153.117 253.366 150.969 253.366C148.821 253.366 146.88 253.274 145.472 253.226L143.805 253.161H143.354L143.187 253.102Z" fill="#263238"/>
<path d="M155.534 253.533C155.612 253.241 155.719 252.959 155.853 252.692C156.022 252.447 156.216 252.223 156.431 252.024C156.145 252.128 155.906 252.344 155.762 252.627C155.583 252.889 155.502 253.211 155.534 253.533Z" fill="#263238"/>
<path d="M152.849 252.04C152.874 252.04 153.006 251.889 153.137 251.668C153.269 251.447 153.365 251.253 153.34 251.231C153.315 251.21 153.183 251.382 153.046 251.603C152.909 251.824 152.818 252.018 152.849 252.04Z" fill="#263238"/>
<path d="M152.109 251.609C152.109 251.636 152.276 251.533 152.433 251.388C152.59 251.242 152.707 251.097 152.687 251.07C152.666 251.043 152.519 251.15 152.362 251.296C152.205 251.441 152.089 251.587 152.109 251.609Z" fill="#263238"/>
<path d="M151.653 250.681C151.805 250.744 151.967 250.77 152.129 250.757C152.299 250.782 152.473 250.766 152.636 250.708C152.475 250.642 152.301 250.618 152.129 250.638C151.97 250.616 151.807 250.631 151.653 250.681Z" fill="#263238"/>
<path d="M151.496 250.035C151.655 250.144 151.839 250.204 152.028 250.207C152.215 250.243 152.408 250.217 152.58 250.132C152.406 250.105 152.229 250.094 152.053 250.099C151.87 250.059 151.683 250.037 151.496 250.035Z" fill="#263238"/>
<path d="M153.168 251.177C153.363 251.212 153.561 251.212 153.756 251.177C153.969 251.156 154.18 251.111 154.384 251.043C154.509 251.006 154.63 250.953 154.744 250.886C154.815 250.846 154.87 250.779 154.896 250.698C154.906 250.651 154.903 250.602 154.888 250.557C154.873 250.512 154.845 250.473 154.81 250.444C154.586 250.324 154.33 250.29 154.085 250.348C153.84 250.406 153.622 250.552 153.467 250.762C153.374 250.884 153.307 251.026 153.269 251.177C153.256 251.232 153.256 251.29 153.269 251.344C153.33 251.149 153.423 250.967 153.543 250.805C153.678 250.643 153.854 250.525 154.05 250.466C154.165 250.424 154.286 250.408 154.407 250.419C154.528 250.429 154.646 250.465 154.754 250.525C154.845 250.601 154.81 250.714 154.703 250.778C154.598 250.841 154.485 250.89 154.369 250.924C154.17 250.995 153.967 251.049 153.761 251.086C153.391 251.177 153.168 251.177 153.168 251.177Z" fill="#263238"/>
<path d="M153.32 251.226C153.394 251.095 153.42 250.939 153.391 250.789C153.376 250.626 153.324 250.468 153.239 250.331C153.189 250.234 153.115 250.153 153.027 250.095C152.938 250.037 152.836 250.005 152.732 250.002C152.672 250.017 152.619 250.055 152.585 250.109C152.55 250.163 152.536 250.229 152.545 250.293C152.558 250.393 152.591 250.488 152.641 250.574C152.717 250.713 152.809 250.841 152.915 250.956C153.005 251.07 153.12 251.158 153.249 251.215C153.249 251.215 153.132 251.102 152.975 250.897C152.881 250.782 152.799 250.655 152.732 250.52C152.651 250.385 152.6 250.148 152.732 250.121C152.864 250.094 153.031 250.266 153.117 250.39C153.198 250.513 153.254 250.653 153.279 250.8C153.304 250.941 153.317 251.083 153.32 251.226Z" fill="#263238"/>
<path d="M143.409 250.434C143.409 250.434 143.668 250.434 144.083 250.466C144.623 250.536 145.133 250.768 145.553 251.135C145.974 251.501 146.288 251.987 146.46 252.536C146.596 252.956 146.606 253.236 146.627 253.236C146.637 253.17 146.637 253.103 146.627 253.037C146.617 252.854 146.586 252.673 146.536 252.498C146.378 251.923 146.061 251.411 145.625 251.032C145.189 250.653 144.655 250.424 144.093 250.374C143.925 250.357 143.755 250.357 143.587 250.374C143.525 250.382 143.465 250.402 143.409 250.434Z" fill="#263238"/>
<path d="M144.408 246.391C144.334 247.055 144.298 247.722 144.301 248.391C144.264 249.058 144.264 249.728 144.301 250.396C144.372 249.73 144.406 249.061 144.403 248.391C144.44 247.725 144.441 247.057 144.408 246.391Z" fill="#263238"/>
<path d="M147.802 252.358C148.24 252.468 148.69 252.521 149.14 252.514C149.589 252.547 150.041 252.514 150.483 252.417C150.483 252.385 149.88 252.417 149.145 252.417C148.41 252.417 147.807 252.32 147.802 252.358Z" fill="#263238"/>
<path d="M146.009 252.331C145.983 252.331 146.054 252.466 146.115 252.611C146.176 252.757 146.207 252.886 146.237 252.886C146.267 252.886 146.288 252.735 146.237 252.563C146.186 252.39 146.029 252.304 146.009 252.331Z" fill="#263238"/>
<path d="M145.34 251.425C145.34 251.425 145.375 251.549 145.472 251.652C145.568 251.754 145.66 251.819 145.68 251.797C145.7 251.776 145.644 251.673 145.553 251.571C145.462 251.468 145.365 251.398 145.34 251.425Z" fill="#263238"/>
<path d="M144.377 250.999C144.377 251.032 144.504 251.032 144.641 251.086C144.777 251.14 144.869 251.215 144.894 251.194C144.919 251.172 144.843 251.037 144.676 250.973C144.509 250.908 144.367 250.973 144.377 250.999Z" fill="#263238"/>
<path d="M143.688 250.8C143.688 250.827 143.729 250.881 143.805 250.913C143.881 250.946 143.952 250.946 143.962 250.913C143.972 250.881 143.922 250.832 143.851 250.8C143.78 250.768 143.703 250.768 143.688 250.8Z" fill="#263238"/>
<path d="M158.756 151.332L155.24 249.059L140.962 249.377L143.334 164.704L127.282 250.024H113.709L131.194 151.531L158.756 151.332Z" fill="#263238"/>
<path d="M146.622 154.889C146.611 155.432 146.557 155.973 146.46 156.506C146.328 157.493 146.125 158.862 145.887 160.36C145.796 161.077 145.66 161.786 145.482 162.484C145.32 163.07 144.995 163.591 144.55 163.977C144.25 164.235 143.892 164.404 143.511 164.467C143.375 164.505 143.232 164.505 143.095 164.467C143.587 164.391 144.05 164.173 144.433 163.837C144.832 163.457 145.119 162.963 145.259 162.414C145.422 161.725 145.549 161.026 145.639 160.322C145.877 158.819 146.105 157.46 146.282 156.479C146.356 155.94 146.469 155.409 146.622 154.889Z" fill="#455A64"/>
<path d="M143.653 155.358C143.683 155.358 143.567 155.541 143.653 155.795C143.67 155.863 143.7 155.928 143.741 155.984C143.782 156.041 143.833 156.088 143.891 156.123C143.964 156.151 144.043 156.157 144.119 156.141C144.195 156.125 144.265 156.087 144.323 156.032C144.38 155.977 144.423 155.906 144.446 155.827C144.469 155.748 144.471 155.665 144.453 155.584C144.43 155.518 144.393 155.458 144.346 155.408C144.299 155.357 144.242 155.318 144.18 155.293C143.947 155.186 143.784 155.293 143.769 155.256C143.754 155.218 143.901 155.035 144.235 155.11C144.331 155.135 144.42 155.183 144.496 155.25C144.571 155.317 144.631 155.402 144.671 155.498C144.713 155.626 144.717 155.764 144.683 155.894C144.648 156.025 144.577 156.14 144.479 156.226C144.387 156.318 144.27 156.378 144.145 156.398C144.02 156.417 143.892 156.395 143.779 156.334C143.695 156.279 143.623 156.205 143.571 156.116C143.518 156.027 143.485 155.926 143.475 155.822C143.44 155.466 143.643 155.326 143.653 155.358Z" fill="#455A64"/>
<path d="M135.987 156.754C135.82 156.316 135.757 155.84 135.805 155.37C135.853 154.9 136.009 154.449 136.261 154.059C136.326 154.091 136.119 154.668 136.053 155.407C135.987 156.145 136.058 156.733 135.987 156.754Z" fill="#455A64"/>
<path d="M137.705 156.635C137.495 156.193 137.423 155.691 137.497 155.202C137.49 154.704 137.628 154.217 137.892 153.806C137.958 153.806 137.796 154.447 137.75 155.218C137.758 155.691 137.743 156.164 137.705 156.635Z" fill="#455A64"/>
<path d="M152.459 157.034C152.445 156.544 152.472 156.053 152.54 155.568C152.522 155.077 152.543 154.585 152.601 154.097C152.791 154.563 152.856 155.076 152.788 155.579C152.805 156.087 152.691 156.59 152.459 157.034Z" fill="#455A64"/>
<path d="M154.323 156.927C154.252 156.894 154.475 156.253 154.526 155.434C154.576 154.614 154.445 153.951 154.526 153.93C154.729 154.407 154.818 154.931 154.784 155.454C154.751 155.977 154.596 156.483 154.333 156.927H154.323Z" fill="#455A64"/>
<path d="M138.88 110.674L147.696 109.925C147.752 108.847 147.696 104.6 147.696 104.6C147.696 104.6 151.364 103.991 151.41 100.094C151.456 96.1966 150.817 87.2383 150.817 87.2383C148.729 86.2762 146.438 85.9263 144.18 86.2249C141.922 86.5235 139.781 87.4596 137.978 88.9362L137.436 89.3835L138.88 110.674Z" fill="#FFBE9D"/>
<path d="M147.666 104.567C145.973 104.604 144.309 104.101 142.888 103.123C142.888 103.123 144.018 105.931 147.676 105.581L147.666 104.567Z" fill="#EB996E"/>
<path d="M149.353 93.3507C149.353 93.4937 149.299 93.6308 149.204 93.7318C149.109 93.8329 148.98 93.8897 148.846 93.8897C148.78 93.8949 148.713 93.8859 148.649 93.8635C148.586 93.841 148.527 93.8055 148.477 93.7589C148.427 93.7124 148.385 93.6557 148.356 93.5921C148.326 93.5285 148.308 93.4593 148.304 93.3884C148.304 93.2455 148.357 93.1084 148.452 93.0073C148.547 92.9062 148.676 92.8494 148.811 92.8494C148.877 92.8443 148.944 92.8532 149.007 92.8757C149.071 92.8981 149.129 92.9336 149.18 92.9802C149.23 93.0268 149.271 93.0835 149.301 93.1471C149.331 93.2107 149.348 93.2799 149.353 93.3507Z" fill="#263238"/>
<path d="M150.087 92.7092C150.021 92.7793 149.626 92.4667 149.074 92.4667C148.522 92.4667 148.096 92.7685 148.035 92.6985C147.974 92.6284 148.071 92.5314 148.253 92.3912C148.498 92.2143 148.788 92.1204 149.084 92.1217C149.377 92.1205 149.663 92.2187 149.9 92.402C150.062 92.5583 150.118 92.7092 150.087 92.7092Z" fill="#263238"/>
<path d="M143.663 93.4908C143.663 93.6338 143.609 93.7709 143.514 93.872C143.419 93.9731 143.291 94.0298 143.156 94.0298C143.09 94.035 143.023 94.0261 142.959 94.0036C142.896 93.9812 142.838 93.9456 142.787 93.8991C142.737 93.8525 142.696 93.7958 142.666 93.7322C142.636 93.6686 142.619 93.5994 142.614 93.5286C142.614 93.3856 142.667 93.2485 142.762 93.1474C142.857 93.0464 142.986 92.9896 143.121 92.9896C143.187 92.9844 143.254 92.9933 143.317 93.0158C143.381 93.0382 143.439 93.0738 143.49 93.1203C143.54 93.1669 143.581 93.2236 143.611 93.2872C143.641 93.3508 143.658 93.42 143.663 93.4908Z" fill="#263238"/>
<path d="M144.549 92.8332C144.484 92.9087 144.088 92.596 143.536 92.596C142.984 92.596 142.558 92.8979 142.497 92.8224C142.437 92.747 142.533 92.6607 142.715 92.5206C142.958 92.3388 143.249 92.2444 143.546 92.2511C143.839 92.2499 144.125 92.348 144.362 92.5313C144.524 92.6715 144.585 92.8009 144.549 92.8332Z" fill="#263238"/>
<path d="M146.597 97.28C146.893 97.1821 147.199 97.1224 147.509 97.1021C147.655 97.1021 147.792 97.059 147.813 96.9512C147.826 96.7933 147.792 96.635 147.716 96.4985C147.585 96.1391 147.443 95.751 147.291 95.3342C146.897 94.3479 146.578 93.3295 146.338 92.2888C146.806 93.2403 147.203 94.2298 147.524 95.248C147.666 95.6522 147.797 96.0457 147.929 96.4176C148.019 96.6037 148.044 96.8175 148 97.0213C147.979 97.0758 147.947 97.1245 147.905 97.1637C147.864 97.2029 147.815 97.2316 147.762 97.2477C147.683 97.2719 147.601 97.2846 147.519 97.2854C147.212 97.3243 146.903 97.3225 146.597 97.28Z" fill="#263238"/>
<path d="M144.96 97.6951C145.051 97.6951 145.051 98.3365 145.573 98.8C146.095 99.2636 146.749 99.1935 146.754 99.2798C146.759 99.366 146.607 99.4091 146.333 99.4145C145.976 99.4208 145.628 99.293 145.35 99.0534C145.075 98.8233 144.894 98.4894 144.844 98.1209C144.828 97.8514 144.894 97.6897 144.96 97.6951Z" fill="#263238"/>
<path d="M144.696 90.4886C144.641 90.6503 144.078 90.5694 143.42 90.6557C142.761 90.7419 142.224 90.9359 142.133 90.785C142.097 90.7149 142.188 90.564 142.401 90.4077C142.689 90.2136 143.015 90.0918 143.354 90.0517C143.693 90.0115 144.036 90.054 144.357 90.1759C144.6 90.2784 144.722 90.4077 144.696 90.4886Z" fill="#263238"/>
<path d="M149.88 90.9898C149.783 91.1245 149.373 90.9898 148.927 90.9898C148.481 90.9898 148.066 91.0814 147.975 90.9359C147.884 90.7904 147.975 90.7311 148.172 90.6017C148.402 90.4427 148.674 90.3653 148.947 90.3807C149.221 90.3868 149.486 90.4808 149.707 90.6502C149.87 90.7796 149.925 90.9197 149.88 90.9898Z" fill="#263238"/>
<path d="M137.867 93.4316C137.806 93.4046 135.333 92.6392 135.429 95.3073C135.526 97.9754 138.008 97.3394 138.014 97.2639C138.019 97.1884 137.867 93.4316 137.867 93.4316Z" fill="#FFBE9D"/>
<path d="M137.233 96.2775C137.233 96.2775 137.193 96.3099 137.122 96.3476C137.016 96.3934 136.898 96.3934 136.793 96.3476C136.632 96.2408 136.501 96.091 136.412 95.9131C136.323 95.7353 136.279 95.5356 136.286 95.3343C136.271 95.1044 136.306 94.874 136.387 94.6605C136.408 94.5771 136.448 94.5003 136.502 94.4365C136.557 94.3728 136.625 94.3239 136.701 94.294C136.751 94.2788 136.805 94.2823 136.853 94.3039C136.901 94.3254 136.94 94.3638 136.965 94.4126C137 94.488 136.965 94.5419 137 94.5473C137.036 94.5527 137.051 94.4988 137.031 94.391C137.013 94.3245 136.976 94.2659 136.924 94.2239C136.853 94.173 136.766 94.1519 136.681 94.1646C136.579 94.1899 136.485 94.2429 136.407 94.3185C136.33 94.3941 136.273 94.4896 136.24 94.5958C136.138 94.8299 136.093 95.0875 136.109 95.3451C136.103 95.5828 136.164 95.817 136.284 96.0176C136.404 96.2183 136.578 96.3763 136.782 96.4716C136.85 96.4904 136.92 96.4929 136.989 96.4789C137.057 96.4649 137.122 96.4348 137.178 96.3907C137.233 96.3422 137.243 96.2829 137.233 96.2775Z" fill="#EB996E"/>
<path d="M152.185 83.8695C151.918 83.3078 151.533 82.8186 151.061 82.4394C150.589 82.0602 150.041 81.8011 149.46 81.6819C148.879 81.5627 148.28 81.5867 147.709 81.752C147.138 81.9172 146.61 82.2193 146.166 82.6352C145.888 82.0448 145.477 81.536 144.971 81.1535C144.465 80.7711 143.878 80.5265 143.263 80.4414C142.647 80.3563 142.021 80.4331 141.44 80.6653C140.859 80.8974 140.34 81.2777 139.929 81.7728C139.224 82.6244 138.86 83.7725 138.039 84.4678C137.324 85.0877 136.362 85.2925 135.642 85.9016C135.245 86.2403 134.944 86.689 134.771 87.1984C134.598 87.7077 134.56 88.2579 134.662 88.7884C134.765 89.3189 135.002 89.8092 135.35 90.2052C135.697 90.6012 136.14 90.8876 136.63 91.0329C136.45 91.4165 136.345 91.8349 136.321 92.263C136.298 92.6911 136.356 93.1198 136.493 93.523C136.63 93.9263 136.843 94.2958 137.118 94.609C137.393 94.9222 137.726 95.1726 138.095 95.345L138.459 95.1833C139.142 94.3575 139.578 93.3347 139.714 92.2445C139.849 91.1544 139.677 90.0461 139.219 89.0602C139.263 89.0629 139.307 89.0629 139.351 89.0602C139.982 89.4343 140.72 89.5466 141.424 89.3754C142.127 89.2042 142.746 88.7616 143.161 88.1331C143.669 88.5114 144.268 88.7272 144.888 88.7549C145.507 88.7826 146.121 88.6211 146.657 88.2894C146.807 88.1679 146.98 88.0815 147.164 88.0361C147.396 88.04 147.622 88.1128 147.818 88.2463C148.361 88.559 148.981 88.6905 149.596 88.6236C149.879 88.5866 150.149 88.4745 150.381 88.2974C150.613 88.1203 150.8 87.884 150.923 87.6102H150.969C151.319 87.5251 151.641 87.3395 151.899 87.0734C152.158 86.8073 152.342 86.471 152.433 86.101C152.616 85.3504 152.527 84.5541 152.185 83.8695Z" fill="#263238"/>
<path d="M157.748 130.677L158.072 113.105C155.139 110.038 153.573 109.122 149.489 108.61L148.38 108.475L148.03 105.581L138.019 104.977L138.525 108.416C137.076 108.481 135.87 108.955 134.639 109.208C130.748 110.001 127.946 113.014 127.171 115.8C126.527 118.091 122.418 135.075 122.418 135.075L121.582 140.201L130.773 136.654V140.347V153.908H158.64C158.736 150.674 157.748 130.677 157.748 130.677Z" fill="#1565C0"/>
<g opacity="0.2">
<path d="M157.748 130.677L158.072 113.105C155.139 110.038 153.573 109.122 149.489 108.61L148.38 108.475L148.03 105.581L138.019 104.977L138.525 108.416C137.076 108.481 135.87 108.955 134.639 109.208C130.748 110.001 127.946 113.014 127.171 115.8C126.527 118.091 122.418 135.075 122.418 135.075L121.582 140.201L130.773 136.654V140.347V153.908H158.64C158.736 150.674 157.748 130.677 157.748 130.677Z" fill="black"/>
</g>
<path d="M125.767 135.318L139.513 133.243L142.128 138.223L129.349 144.351C128.637 144.699 127.863 144.883 127.08 144.89C125.982 144.888 124.911 144.537 124.002 143.883C123.093 143.229 122.389 142.302 121.977 141.22L121.562 140.142L125.767 135.318Z" fill="#1565C0"/>
<g opacity="0.2">
<path d="M125.767 135.318L139.513 133.243L142.128 138.223L129.349 144.351C128.637 144.699 127.863 144.883 127.08 144.89C125.982 144.888 124.911 144.537 124.002 143.883C123.093 143.229 122.389 142.302 121.977 141.22L121.562 140.142L125.767 135.318Z" fill="black"/>
</g>
<path d="M153.857 109.683C153.857 109.683 157.743 111.089 159.375 115.073C160.439 117.671 162.004 130.165 162.004 130.165L163.975 134.213C164.449 135.183 164.696 136.261 164.695 137.355V137.975C164.696 139.546 164.188 141.069 163.256 142.287C162.715 142.995 162.046 143.58 161.289 144.007C160.532 144.435 159.702 144.697 158.848 144.777C156.877 144.966 154.495 145.047 153.989 144.432C153.092 143.354 151.744 140.406 151.744 140.406L157.485 137.172L155.012 132.321L153.857 109.683Z" fill="#1565C0"/>
<g opacity="0.2">
<path d="M153.857 109.683C153.857 109.683 157.743 111.089 159.375 115.073C160.439 117.671 162.004 130.165 162.004 130.165L163.975 134.213C164.449 135.183 164.696 136.261 164.695 137.355V137.975C164.696 139.546 164.188 141.069 163.256 142.287C162.715 142.995 162.046 143.58 161.289 144.007C160.532 144.435 159.702 144.697 158.848 144.777C156.877 144.966 154.495 145.047 153.989 144.432C153.092 143.354 151.744 140.406 151.744 140.406L157.485 137.172L155.012 132.321L153.857 109.683Z" fill="black"/>
</g>
<path d="M130.307 143.915C130.307 143.915 130.378 143.861 130.53 143.78L131.189 143.441L133.656 142.212L142.077 138.121L142.021 138.309L140.41 135.237L139.397 133.329L139.518 133.393L129.446 134.445L126.456 134.73L125.646 134.795C125.552 134.81 125.456 134.81 125.362 134.795C125.453 134.768 125.547 134.75 125.641 134.741L126.446 134.633L129.431 134.267L139.503 133.135H139.584L139.625 133.21L140.638 135.118L142.244 138.191L142.31 138.315L142.188 138.374L133.732 142.379L131.234 143.532L130.555 143.834C130.475 143.869 130.392 143.896 130.307 143.915Z" fill="#263238"/>
<path d="M132.749 133.873C132.678 133.873 132.623 131.259 132.623 128.036C132.623 124.813 132.678 122.198 132.749 122.198C132.82 122.198 132.876 124.813 132.876 128.036C132.876 131.259 132.8 133.873 132.749 133.873Z" fill="#263238"/>
<path d="M156.411 137.781C156.411 137.781 156.558 137.733 156.826 137.711C157.214 137.672 157.605 137.696 157.986 137.781C158.265 137.844 158.519 137.999 158.711 138.223C158.912 138.491 159.043 138.811 159.091 139.15C159.153 139.524 159.122 139.909 159 140.266C158.861 140.648 158.62 140.978 158.306 141.214C157.698 141.609 157.02 141.866 156.314 141.969C155.752 142.085 155.18 142.145 154.607 142.147C154.077 142.195 153.545 142.097 153.062 141.861C153.573 141.945 154.09 141.977 154.607 141.958C155.166 141.93 155.722 141.853 156.269 141.727C156.938 141.619 157.58 141.371 158.159 140.999C158.423 140.798 158.629 140.522 158.753 140.203C158.878 139.884 158.916 139.534 158.863 139.193C158.826 138.894 158.72 138.608 158.554 138.363C158.391 138.169 158.178 138.03 157.941 137.964C157.576 137.867 157.202 137.816 156.826 137.813C156.687 137.82 156.547 137.809 156.411 137.781Z" fill="#263238"/>
<path d="M158.691 144.847C158.362 144.953 158.019 144.995 157.677 144.971C156.867 144.999 156.06 144.858 155.301 144.556C154.881 144.388 154.484 144.161 154.12 143.883C153.825 143.646 153.577 143.349 153.391 143.009C153.201 142.711 153.08 142.369 153.036 142.012C153.077 142.012 153.208 142.379 153.543 142.907C153.738 143.21 153.981 143.475 154.262 143.689C154.616 143.94 154.997 144.146 155.397 144.303C156.13 144.593 156.901 144.755 157.682 144.783C158.019 144.779 158.356 144.8 158.691 144.847Z" fill="#263238"/>
<path d="M161.437 132.181C161.239 132.494 161.011 132.785 160.758 133.049C160.317 133.561 159.694 134.261 158.995 135.021C158.295 135.781 157.657 136.466 157.181 136.946C156.942 137.226 156.674 137.476 156.38 137.689C156.571 137.37 156.797 137.077 157.054 136.816C157.495 136.277 158.118 135.598 158.812 134.838C159.622 133.882 160.499 132.994 161.437 132.181Z" fill="#263238"/>
<path d="M155.175 129.453C155.048 128.347 155.005 127.231 155.048 126.117C155.005 125.001 155.048 123.884 155.175 122.775C155.302 123.884 155.344 125.001 155.302 126.117C155.344 127.231 155.302 128.347 155.175 129.453Z" fill="#263238"/>
<path d="M157.221 111.946C157.221 112.022 151.035 112.087 143.404 112.087C135.774 112.087 129.588 112.022 129.588 111.946C129.588 111.871 135.774 111.806 143.404 111.806C151.035 111.806 157.221 111.866 157.221 111.946Z" fill="#FAFAFA"/>
<path d="M148.106 108.578C146.52 108.708 144.929 108.746 143.339 108.691C141.749 108.73 140.159 108.672 138.576 108.518C140.161 108.391 141.75 108.355 143.339 108.411C144.93 108.375 146.521 108.431 148.106 108.578Z" fill="#263238"/>
<path d="M160.226 117.886C160.226 117.962 152.717 118.026 143.45 118.026C134.183 118.026 126.669 117.962 126.669 117.886C126.669 117.811 134.183 117.741 143.45 117.741C152.717 117.741 160.226 117.805 160.226 117.886Z" fill="#FAFAFA"/>
<path d="M161.265 123.972C161.265 124.053 153.158 124.112 143.131 124.112C133.104 124.112 124.997 124.053 124.997 123.972C124.997 123.891 133.104 123.832 143.131 123.832C153.158 123.832 161.265 123.912 161.265 123.972Z" fill="#FAFAFA"/>
<path d="M161.913 129.928C161.913 130.003 153.345 130.068 142.776 130.068C132.207 130.068 123.639 130.003 123.639 129.928C123.639 129.852 132.207 129.788 142.776 129.788C153.345 129.788 161.913 129.847 161.913 129.928Z" fill="#FAFAFA"/>
<path d="M164.502 139.603C164.502 139.678 154.982 139.743 143.222 139.743C131.462 139.743 121.942 139.678 121.942 139.603C121.942 139.527 131.462 139.463 143.222 139.463C154.982 139.463 164.502 139.517 164.502 139.603Z" fill="#FAFAFA"/>
<path d="M158.397 146.378C158.397 146.454 152.114 146.518 144.367 146.518C136.62 146.518 130.338 146.454 130.338 146.378C130.338 146.303 136.615 146.238 144.367 146.238C152.119 146.238 158.397 146.297 158.397 146.378Z" fill="#FAFAFA"/>
<path d="M151.901 130.849L151.602 130.612C150.837 130.001 149.961 129.567 149.029 129.338C148.097 129.109 147.131 129.089 146.191 129.281C144.645 129.596 143.197 130.319 141.981 131.383L139.625 133.447L142.128 138.223L143.835 135.684C143.835 135.684 145.426 137.98 145.71 137.738C145.962 137.452 146.172 137.126 146.333 136.773L145.198 135.081L147.924 135.684L151.901 133.749L150.194 131.453L151.901 132.057V130.849Z" fill="#FFBE9D"/>
<path d="M147.701 130.413L138.951 141.683L139.625 142.454L153.822 140.153L160.864 128.882L160.211 128.257L147.701 130.413Z" fill="#263238"/>
<path d="M156.983 133.388C156.71 133.387 156.444 133.474 156.219 133.638C155.993 133.801 155.82 134.034 155.722 134.304C155.568 134.867 155.27 135.373 154.86 135.765C154.227 136.132 153.138 136.423 152.565 136.126C151.992 135.83 149.697 133.631 149.297 133.873C148.897 134.116 148.552 134.666 148.952 135.156C149.353 135.647 151.486 137.107 151.075 137.598C150.665 138.088 146.196 135.938 145.502 136.126C144.808 136.315 144.413 136.762 144.813 137.059C145.213 137.355 148.253 138.573 148.426 138.999C148.426 138.999 143.835 137.716 143.663 138.024C143.491 138.331 143.207 138.816 143.663 138.999C144.119 139.182 148.081 140.282 148.426 140.465C148.994 140.714 149.587 140.894 150.194 141.004C150.82 141.177 151.437 141.384 152.043 141.624C152.971 141.97 153.986 141.941 154.896 141.543L155.362 141.344C155.714 141.19 156.013 140.923 156.216 140.58C156.418 140.237 156.515 139.835 156.492 139.43L156.4 137.77L156.907 136.396L156.983 133.388Z" fill="#FFBE9D"/>
<path d="M160.89 128.984C160.805 129.019 160.716 129.043 160.626 129.055L159.866 129.195L157.069 129.674L152.915 130.348L150.462 130.742C149.597 130.843 148.774 131.197 148.086 131.766C147.455 132.419 146.877 133.127 146.358 133.884C145.816 134.596 145.299 135.285 144.803 135.943L142.163 139.42L140.365 141.759L139.858 142.384C139.803 142.46 139.74 142.529 139.67 142.589C139.67 142.589 139.711 142.503 139.817 142.352L140.278 141.694L142.011 139.312L144.61 135.792L146.13 133.722C146.659 132.952 147.249 132.23 147.894 131.566C148.616 130.968 149.481 130.595 150.391 130.488L152.849 130.111L157.014 129.491L159.826 129.098L160.591 129.006C160.689 128.981 160.79 128.974 160.89 128.984Z" fill="#455A64"/>
<path d="M154.247 131.453C154.095 131.537 153.961 131.652 153.852 131.793C153.802 131.867 153.776 131.955 153.776 132.046C153.776 132.137 153.802 132.225 153.852 132.299C153.933 132.375 154.038 132.417 154.146 132.417C154.254 132.417 154.358 132.375 154.44 132.299C154.554 132.213 154.634 132.084 154.663 131.938C154.678 131.866 154.675 131.791 154.654 131.72C154.634 131.649 154.597 131.585 154.546 131.534C154.491 131.489 154.423 131.464 154.354 131.464C154.284 131.464 154.216 131.489 154.161 131.534" fill="#FAFAFA"/>
<path d="M112.802 106.109L110.228 101.258C111.82 98.5078 112.387 95.2237 111.818 92.0512C111.249 88.8787 109.586 86.0473 107.154 84.1136C104.722 82.1799 101.699 81.2838 98.6776 81.6014C95.6564 81.9191 92.8562 83.4275 90.8274 85.8302C88.7987 88.2329 87.6881 91.356 87.7141 94.5856C87.74 97.8152 88.9007 100.918 90.9678 103.283C93.0349 105.648 95.859 107.106 98.8849 107.368C101.911 107.631 104.919 106.68 107.32 104.702L112.802 106.109Z" fill="#1565C0"/>
<path d="M95.6765 92.9573C95.6765 91.793 96.3352 91.0546 97.2725 91.0546C98.2099 91.0546 98.8584 91.7822 98.8584 92.9573C98.8584 94.1323 98.2048 94.8653 97.2725 94.8653C96.3403 94.8653 95.6765 94.1269 95.6765 92.9573ZM97.9413 92.9573C97.9413 92.2188 97.6728 91.8793 97.2725 91.8793C96.8723 91.8793 96.6037 92.2458 96.6037 92.9573C96.6037 93.6688 96.8773 94.0353 97.2725 94.0353C97.6677 94.0353 97.9413 93.7011 97.9413 92.9573ZM101.093 91.13H102.182L97.8045 98.0455H96.7152L101.093 91.13ZM100.039 96.2183C100.039 95.054 100.698 94.3102 101.625 94.3102C102.552 94.3102 103.216 95.054 103.216 96.2183C103.216 97.3825 102.557 98.1263 101.625 98.1263C100.693 98.1263 100.039 97.3825 100.039 96.2183ZM102.294 96.2183C102.294 95.4852 102.025 95.1402 101.625 95.1402C101.225 95.1402 100.956 95.496 100.956 96.2183C100.956 96.9405 101.23 97.2963 101.625 97.2963C102.02 97.2963 102.294 96.9513 102.294 96.2183Z" fill="white"/>
</svg>
