<svg width="150" height="24" viewBox="0 0 150 24" fill="none" xmlns="http://www.w3.org/2000/svg">
<path d="M56.0636 18.8299C56.0636 21.6433 53.6402 23.6558 50.6609 23.6558H40.9672C37.9879 23.6558 35.5645 21.6433 35.5645 18.8299V13.2237C35.5645 10.4104 37.9879 8.39789 40.9672 8.39789H50.6832C53.6624 8.39789 56.0859 10.4104 56.0859 13.2237V18.8299H56.0636ZM52.2173 13.2237C52.2173 12.3818 51.7059 11.9505 50.6609 11.9505H40.9672C39.9444 11.9505 39.4108 12.3818 39.4108 13.2237V18.8094C39.4108 19.6514 39.9222 20.0826 40.9672 20.0826H50.6832C51.7059 20.0826 52.2395 19.6514 52.2395 18.8094V13.2237H52.2173Z" fill="#1565C0"/>
<path d="M58.2651 8.39789H73.3838C76.452 8.39789 78.9644 10.7184 78.9644 13.5523C78.9644 16.3862 76.452 18.7067 73.3838 18.7067H62.1337V20.1647C62.1337 22.0951 60.444 23.6558 58.2651 23.6558V15.1335H73.3838C75.6516 15.1335 75.6294 11.9505 73.3838 11.9505H62.0448C59.9549 11.9505 58.2651 10.4104 58.2651 8.39789Z" fill="#1565C0"/>
<path d="M94.5944 11.9506H90.9259V23.6353C88.747 23.6353 87.0795 22.0746 87.0795 20.1442V11.9506H79.6313C79.6313 9.93808 81.3211 8.37738 83.411 8.37738H98.3963C98.3741 10.4104 96.6844 11.9506 94.5944 11.9506Z" fill="#1565C0"/>
<path d="M103.621 23.6558H103.554C101.464 23.6558 99.7744 22.0951 99.7744 20.1647V8.39789H99.8411C101.931 8.39789 103.621 9.95859 103.621 11.8889V23.6558Z" fill="#1565C0"/>
<path d="M109.735 8.39789H124.142C124.142 10.4104 122.453 11.9711 120.363 11.9711H105.956C105.956 9.93805 107.645 8.39789 109.735 8.39789ZM105.956 17.7416C105.956 15.8112 107.645 14.2505 109.735 14.2505H124.142C124.142 16.263 122.453 17.8032 120.363 17.8032H110.491C110.113 17.8032 109.824 18.0907 109.824 18.4192V23.6558H105.956V17.7416Z" fill="#1565C0"/>
<path d="M129.701 23.6558H129.634C127.544 23.6558 125.854 22.0951 125.854 20.1647V8.39789H125.921C128.011 8.39789 129.701 9.95859 129.701 11.8889V23.6558Z" fill="#1565C0"/>
<path d="M150 20.1647C150 22.0951 148.31 23.6558 146.22 23.6558H146.153L136.215 13.388V20.1647C136.215 22.0951 134.525 23.6558 132.435 23.6558H132.369V11.8889C132.369 9.95859 134.058 8.39789 136.148 8.39789H136.215L146.131 18.604V11.8889C146.131 9.95859 147.821 8.39789 149.911 8.39789H149.977V20.1647H150Z" fill="#1565C0"/>
<path d="M10.2409 6.09775C8.57341 5.42008 6.61687 6.11828 5.88317 7.65845L0.280351 19.3637C-0.453351 20.9039 0.302584 22.711 1.97009 23.3887C3.63759 24.0663 5.59413 23.3681 6.32783 21.828L11.9306 10.1022C12.6421 8.58255 11.8862 6.77542 10.2409 6.09775Z" fill="#1565C0"/>
<path d="M21.0912 2.9559C19.4237 2.27823 17.4671 2.97644 16.7334 4.5166L9.61873 19.3843C8.88503 20.9245 9.64096 22.7316 11.3085 23.4093C12.976 24.087 14.9325 23.3887 15.6662 21.8486L22.7809 6.98086C23.5146 5.4407 22.7587 3.63357 21.0912 2.9559Z" fill="#1565C0"/>
<path d="M31.6965 0.594255C30.029 -0.0834176 28.0724 0.594255 27.3387 2.13442L19.1124 19.3637C18.3787 20.9039 19.1346 22.711 20.8021 23.3887C22.4696 24.0664 24.4262 23.3681 25.1599 21.828L33.4085 4.59868C34.1199 3.05852 33.364 1.27193 31.6965 0.594255Z" fill="#1565C0"/>
</svg>
